<svg id="Calque_1" data-name="Calque 1" xmlns="http://www.w3.org/2000/svg" xmlns:xlink="http://www.w3.org/1999/xlink" viewBox="0 0 150.1 149.26"><defs><style>.cls-1{fill:none;}.cls-2{fill:#4eb9a9;}.cls-3{fill:#fff;}.cls-4{fill:#dadada;}.cls-5{stroke:#fff;stroke-miterlimit:10;stroke-width:1.68px;fill:url(#Dégradé_sans_nom_61);}.cls-6{clip-path:url(#clip-path);}.cls-7{fill:url(#Dégradé_sans_nom_2);}.cls-8{fill:url(#Dégradé_sans_nom_58);}.cls-9{fill:url(#Dégradé_sans_nom_59);}.cls-10{fill:#1e1e1c;}.cls-11{fill:#3d3d3b;}.cls-12{fill:url(#Dégradé_sans_nom_6);}.cls-13{fill:url(#Dégradé_sans_nom_6-2);}.cls-14{fill:url(#Dégradé_sans_nom_6-3);}.cls-15{fill:url(#Dégradé_sans_nom_11);}.cls-16{fill:url(#Dégradé_sans_nom_11-2);}.cls-17{fill:url(#Dégradé_sans_nom_11-3);}.cls-18{fill:url(#Dégradé_sans_nom_10);}.cls-19{fill:#edeff6;}.cls-20{fill:url(#Dégradé_sans_nom_11-4);}.cls-21{fill:#f6d1a1;}.cls-22{fill:url(#Dégradé_sans_nom_12);}.cls-23{fill:#e0ad7a;}.cls-24{fill:#fbdeb3;}.cls-25{fill:url(#Dégradé_sans_nom_21);}.cls-26{fill:url(#Dégradé_sans_nom_21-2);}.cls-27{fill:url(#Dégradé_sans_nom_15);}.cls-28{fill:url(#Dégradé_sans_nom_42);}.cls-29{fill:url(#Dégradé_sans_nom_42-2);}.cls-30{fill:url(#Dégradé_sans_nom_32);}.cls-31{fill:#9a2725;}.cls-32{fill:url(#Dégradé_sans_nom_22);}.cls-33{fill:url(#Dégradé_sans_nom_21-3);}.cls-34{fill:url(#Dégradé_sans_nom_21-4);}.cls-35{fill:url(#Dégradé_sans_nom_22-2);}.cls-36{fill:#f18989;}.cls-37{fill:url(#Dégradé_sans_nom_24);}.cls-38{fill:#facbc0;}.cls-39{fill:url(#Dégradé_sans_nom_24-2);}.cls-40{fill:url(#Dégradé_sans_nom_32-2);}.cls-41{fill:url(#Dégradé_sans_nom_34);}.cls-42{fill:url(#Dégradé_sans_nom_34-2);}.cls-43{fill:url(#Dégradé_sans_nom_35);}.cls-44{fill:#e4e3e4;}.cls-45{fill:url(#Dégradé_sans_nom_36);}.cls-46{fill:url(#Dégradé_sans_nom_37);}.cls-47{fill:url(#Dégradé_sans_nom_40);}.cls-48{fill:url(#Dégradé_sans_nom_32-3);}.cls-49{fill:url(#Dégradé_sans_nom_34-3);}.cls-50{fill:url(#Dégradé_sans_nom_34-4);}.cls-51{fill:url(#Dégradé_sans_nom_35-2);}.cls-52{fill:url(#Dégradé_sans_nom_36-2);}.cls-53{fill:url(#Dégradé_sans_nom_37-2);}.cls-54{fill:url(#Dégradé_sans_nom_40-2);}.cls-55{fill:url(#Dégradé_sans_nom_40-3);}.cls-56{fill:url(#Dégradé_sans_nom_40-4);}.cls-57{fill:url(#Dégradé_sans_nom_41);}.cls-58{fill:url(#Dégradé_sans_nom_42-3);}.cls-59{fill:url(#Dégradé_sans_nom_58-2);}.cls-60{fill:url(#Dégradé_sans_nom_58-3);}.cls-61{fill:url(#Dégradé_sans_nom_58-4);}.cls-62{fill:url(#Dégradé_sans_nom_58-5);}.cls-63{fill:url(#Dégradé_sans_nom_58-6);}.cls-64{fill:url(#Dégradé_sans_nom_58-7);}.cls-65{fill:url(#Dégradé_sans_nom_58-8);}.cls-66{fill:url(#Dégradé_sans_nom_59-2);}.cls-67{fill:url(#Dégradé_sans_nom_59-3);}.cls-68{fill:url(#Dégradé_sans_nom_58-9);}.cls-69{fill:url(#Dégradé_sans_nom_58-10);}.cls-70{fill:url(#Dégradé_sans_nom_59-4);}.cls-71{fill:url(#Dégradé_sans_nom_59-5);}.cls-72{fill:url(#Dégradé_sans_nom_58-11);}.cls-73{fill:url(#Dégradé_sans_nom_58-12);}.cls-74{fill:url(#Dégradé_sans_nom_58-13);}.cls-75{fill:url(#Dégradé_sans_nom_59-6);}.cls-76{fill:url(#Dégradé_sans_nom_60);}</style><linearGradient id="Dégradé_sans_nom_61" x1="220.64" y1="110.29" x2="279.69" y2="110.29" gradientTransform="translate(1005.52 433.14) rotate(180)" gradientUnits="userSpaceOnUse"><stop offset="0" stop-color="#e5562c"/><stop offset="0.31" stop-color="#e5522d"/><stop offset="0.63" stop-color="#e04634"/><stop offset="0.94" stop-color="#d93439"/><stop offset="1" stop-color="#d72f3c"/></linearGradient><clipPath id="clip-path" transform="translate(-724.98 -250.35)"><circle class="cls-1" cx="800.96" cy="325.05" r="65.45"/></clipPath><linearGradient id="Dégradé_sans_nom_2" x1="417.13" y1="433.35" x2="433.49" y2="486.4" gradientTransform="translate(1225.32 755.76) rotate(179.32)" gradientUnits="userSpaceOnUse"><stop offset="0" stop-color="#50281b"/><stop offset="0.39" stop-color="#53291c"/><stop offset="0.72" stop-color="#5e2d1f"/><stop offset="1" stop-color="#6d3324"/></linearGradient><linearGradient id="Dégradé_sans_nom_58" x1="432.21" y1="450.26" x2="420.19" y2="397.14" gradientTransform="translate(1225.32 755.76) rotate(179.32)" gradientUnits="userSpaceOnUse"><stop offset="0.23" stop-color="#50281b"/><stop offset="1" stop-color="#6d3324"/></linearGradient><linearGradient id="Dégradé_sans_nom_59" x1="395.36" y1="493.53" x2="397.09" y2="423.28" gradientTransform="translate(1225.32 755.76) rotate(179.32)" gradientUnits="userSpaceOnUse"><stop offset="0" stop-color="#753729"/><stop offset="0.29" stop-color="#703427"/><stop offset="0.62" stop-color="#622f23"/><stop offset="0.96" stop-color="#4d281d"/><stop offset="1" stop-color="#49271c"/></linearGradient><linearGradient id="Dégradé_sans_nom_6" x1="68.01" y1="112.46" x2="55.52" y2="76.7" gradientTransform="translate(865.06 433.14) rotate(180)" gradientUnits="userSpaceOnUse"><stop offset="0" stop-color="#f6d1a1"/><stop offset="0.51" stop-color="#f7d3a3"/><stop offset="0.84" stop-color="#f9d8ab"/><stop offset="1" stop-color="#fbdeb3"/></linearGradient><linearGradient id="Dégradé_sans_nom_6-2" x1="59.2" y1="168.48" x2="57.83" y2="180.07" gradientTransform="translate(902.18 527) rotate(170.26)" xlink:href="#Dégradé_sans_nom_6"/><linearGradient id="Dégradé_sans_nom_6-3" x1="56.25" y1="126.85" x2="42.95" y2="34.97" xlink:href="#Dégradé_sans_nom_6"/><linearGradient id="Dégradé_sans_nom_11" x1="1.82" y1="58.29" x2="101.28" y2="58.29" gradientTransform="translate(865.06 433.14) rotate(180)" gradientUnits="userSpaceOnUse"><stop offset="0" stop-color="#fafdff"/><stop offset="1" stop-color="#f5f7fa"/></linearGradient><linearGradient id="Dégradé_sans_nom_11-2" x1="53.31" y1="0.48" x2="50.14" y2="56.09" xlink:href="#Dégradé_sans_nom_11"/><linearGradient id="Dégradé_sans_nom_11-3" x1="27.49" y1="80.65" x2="1.56" y2="63.99" xlink:href="#Dégradé_sans_nom_11"/><linearGradient id="Dégradé_sans_nom_10" x1="28.83" y1="80.03" x2="32.94" y2="65.58" gradientTransform="translate(865.06 433.14) rotate(180)" gradientUnits="userSpaceOnUse"><stop offset="0" stop-color="#edeff6"/><stop offset="0.81" stop-color="#f0f2f8"/><stop offset="1" stop-color="#f2f4f8"/></linearGradient><linearGradient id="Dégradé_sans_nom_11-4" x1="31.98" y1="58.81" x2="28.94" y2="117.76" xlink:href="#Dégradé_sans_nom_11"/><linearGradient id="Dégradé_sans_nom_12" x1="955.34" y1="1030.5" x2="953.01" y2="1016.94" gradientTransform="matrix(-1, -0.08, 0.08, -1, 1658, 1411.57)" gradientUnits="userSpaceOnUse"><stop offset="0" stop-color="#e0ad7a"/><stop offset="0.29" stop-color="#e9bc8a"/><stop offset="0.69" stop-color="#f2cb9a"/><stop offset="1" stop-color="#f6d1a1"/></linearGradient><linearGradient id="Dégradé_sans_nom_21" x1="480.73" y1="-959.03" x2="481.08" y2="-959.03" gradientTransform="matrix(-15.81, -49.19, 52.38, -14.17, 58636.87, 10377.38)" gradientUnits="userSpaceOnUse"><stop offset="0" stop-color="#fbdeb3"/><stop offset="0.51" stop-color="#fadcb0"/><stop offset="0.84" stop-color="#f8d6a8"/><stop offset="1" stop-color="#f6d1a1"/></linearGradient><linearGradient id="Dégradé_sans_nom_21-2" x1="486.78" y1="-966.4" x2="487.16" y2="-966.4" gradientTransform="matrix(13.52, -46.35, -52.99, -13.03, -56963.21, 10289.4)" xlink:href="#Dégradé_sans_nom_21"/><linearGradient id="Dégradé_sans_nom_15" x1="795.16" y1="944.71" x2="791.27" y2="870.5" gradientTransform="matrix(-1, -0.04, 0.04, -1, 1572.65, 1220.82)" gradientUnits="userSpaceOnUse"><stop offset="0" stop-color="#fbdeb3"/><stop offset="0.5" stop-color="#f8d6a7"/><stop offset="1" stop-color="#f6d1a1"/></linearGradient><linearGradient id="Dégradé_sans_nom_42" x1="407.3" y1="-942.58" x2="407.64" y2="-942.58" gradientTransform="matrix(-0.22, 10.34, 10.34, 0.22, 10651.74, -3672.98)" gradientUnits="userSpaceOnUse"><stop offset="0" stop-color="#fee4bc"/><stop offset="0.68" stop-color="#fee2b9"/><stop offset="1" stop-color="#fbdeb3"/></linearGradient><linearGradient id="Dégradé_sans_nom_42-2" x1="663.99" y1="758.94" x2="677.09" y2="758.94" gradientTransform="translate(1599.02 941.96) rotate(169.03)" xlink:href="#Dégradé_sans_nom_42"/><linearGradient id="Dégradé_sans_nom_32" x1="790.77" y1="830.2" x2="790.87" y2="850.56" gradientTransform="matrix(-1, -0.04, 0.04, -1, 1572.65, 1220.82)" gradientUnits="userSpaceOnUse"><stop offset="0" stop-color="#e0ad7a"/><stop offset="0.43" stop-color="#e8ba88"/><stop offset="1" stop-color="#f6d1a1"/></linearGradient><linearGradient id="Dégradé_sans_nom_22" x1="465.61" y1="-947.75" x2="466.03" y2="-947.75" gradientTransform="matrix(33.08, 1.43, 1.43, -33.08, -13232.58, -31685.88)" gradientUnits="userSpaceOnUse"><stop offset="0" stop-color="#eee0df"/><stop offset="0.05" stop-color="#f1e4e4"/><stop offset="0.36" stop-color="#fcf9f9"/><stop offset="0.57" stop-color="#fff"/><stop offset="1" stop-color="#eedbda"/></linearGradient><linearGradient id="Dégradé_sans_nom_21-3" x1="858.97" y1="692.62" x2="855.98" y2="691.53" gradientTransform="matrix(-1, -0.03, 0.03, -1, 1640.63, 1043.91)" xlink:href="#Dégradé_sans_nom_21"/><linearGradient id="Dégradé_sans_nom_21-4" x1="832.12" y1="693.79" x2="834.03" y2="692.18" gradientTransform="matrix(-1, -0.03, 0.03, -1, 1640.63, 1043.91)" xlink:href="#Dégradé_sans_nom_21"/><linearGradient id="Dégradé_sans_nom_22-2" x1="464.11" y1="-979.35" x2="464.51" y2="-979.35" gradientTransform="matrix(-59.36, 0.21, 0.21, 59.36, 28579.59, 58366.48)" xlink:href="#Dégradé_sans_nom_22"/><linearGradient id="Dégradé_sans_nom_24" x1="465.46" y1="-984.98" x2="465.89" y2="-984.98" gradientTransform="matrix(-39.27, -4.11, -4.11, 39.27, 15057.78, 40926.49)" gradientUnits="userSpaceOnUse"><stop offset="0" stop-color="#f18e8b"/><stop offset="0.01" stop-color="#f18e8b"/><stop offset="0.1" stop-color="#f39794"/><stop offset="0.26" stop-color="#f49f9c"/><stop offset="0.53" stop-color="#f4a19d"/><stop offset="0.78" stop-color="#f4a09c"/><stop offset="0.9" stop-color="#f39896"/><stop offset="0.99" stop-color="#f18b8a"/><stop offset="1" stop-color="#f18989"/></linearGradient><linearGradient id="Dégradé_sans_nom_24-2" x1="466.29" y1="-991.05" x2="466.71" y2="-991.05" gradientTransform="matrix(-29.87, -2.92, -2.92, 29.87, 11859.42, 31293.62)" xlink:href="#Dégradé_sans_nom_24"/><linearGradient id="Dégradé_sans_nom_32-2" x1="201.95" y1="307.07" x2="186.71" y2="301.15" gradientTransform="translate(972.75 627.25) rotate(-175.71)" xlink:href="#Dégradé_sans_nom_32"/><linearGradient id="Dégradé_sans_nom_34" x1="524.92" y1="-956.73" x2="525.33" y2="-956.73" gradientTransform="matrix(-8.77, -1.18, 1.18, -8.77, 6527.06, -7464.19)" gradientUnits="userSpaceOnUse"><stop offset="0" stop-color="#fff"/><stop offset="0.52" stop-color="#fefdfd"/><stop offset="0.86" stop-color="#f6f4f3"/><stop offset="1" stop-color="#f1edee"/></linearGradient><linearGradient id="Dégradé_sans_nom_34-2" x1="421.06" y1="-971.76" x2="421.52" y2="-971.76" gradientTransform="matrix(12.19, 2.95, -2.95, 12.19, -7200.95, 10912.01)" xlink:href="#Dégradé_sans_nom_34"/><linearGradient id="Dégradé_sans_nom_35" x1="154.49" y1="187.05" x2="144.27" y2="190.04" gradientTransform="translate(961.25 490.81) rotate(176.91)" gradientUnits="userSpaceOnUse"><stop offset="0" stop-color="#e5e4e2"/><stop offset="1" stop-color="#adaba1"/></linearGradient><linearGradient id="Dégradé_sans_nom_36" x1="153.78" y1="190.55" x2="144.3" y2="191.19" gradientTransform="translate(961.25 490.81) rotate(176.91)" gradientUnits="userSpaceOnUse"><stop offset="0" stop-color="#d0cdc8"/><stop offset="1" stop-color="#a09b92"/></linearGradient><radialGradient id="Dégradé_sans_nom_37" cx="556.68" cy="155.4" r="3.2" gradientTransform="matrix(1.09, -0.09, -0.08, -1.08, 203.61, 527.54)" gradientUnits="userSpaceOnUse"><stop offset="0" stop-color="#323d3d"/><stop offset="1" stop-color="#272c29"/></radialGradient><linearGradient id="Dégradé_sans_nom_40" x1="477.18" y1="-970.83" x2="477.59" y2="-970.83" gradientTransform="matrix(-43.26, -4.11, -4.11, 43.26, 17458.72, 44269.26)" gradientUnits="userSpaceOnUse"><stop offset="0" stop-color="#703425"/><stop offset="0.34" stop-color="#5b2c1f"/><stop offset="0.68" stop-color="#4d291d"/><stop offset="1" stop-color="#49271c"/></linearGradient><linearGradient id="Dégradé_sans_nom_32-3" x1="441.57" y1="-969.9" x2="441.98" y2="-969.9" gradientTransform="matrix(-36.48, 10.06, -10.06, -36.48, 7197.02, -39515.4)" xlink:href="#Dégradé_sans_nom_32"/><linearGradient id="Dégradé_sans_nom_34-3" x1="564.68" y1="-963.36" x2="565.08" y2="-963.36" gradientTransform="matrix(8.75, -1.28, -1.28, -8.75, -5348.14, -7396.17)" xlink:href="#Dégradé_sans_nom_34"/><linearGradient id="Dégradé_sans_nom_34-4" x1="393.53" y1="-963.98" x2="394" y2="-963.98" gradientTransform="matrix(-12.16, 3.1, 3.1, 12.16, 8601.99, 10811.46)" xlink:href="#Dégradé_sans_nom_34"/><linearGradient id="Dégradé_sans_nom_35-2" x1="504.05" y1="-987.14" x2="504.47" y2="-987.14" gradientTransform="translate(-14339.99 17154.36) rotate(14.95) scale(20.45)" xlink:href="#Dégradé_sans_nom_35"/><linearGradient id="Dégradé_sans_nom_36-2" x1="126.49" y1="188.52" x2="120.37" y2="189.77" xlink:href="#Dégradé_sans_nom_36"/><radialGradient id="Dégradé_sans_nom_37-2" cx="236.08" cy="178.52" r="5.77" gradientTransform="matrix(-1.1, -0.07, 0.07, -1.08, 1072.55, 522.37)" xlink:href="#Dégradé_sans_nom_37"/><linearGradient id="Dégradé_sans_nom_40-2" x1="485.34" y1="-969.82" x2="485.74" y2="-969.82" gradientTransform="translate(-15648.98 44466.36) rotate(-6.12) scale(43.46)" xlink:href="#Dégradé_sans_nom_40"/><linearGradient id="Dégradé_sans_nom_40-3" x1="-114.67" y1="-180.4" x2="-98.3" y2="-180.4" gradientTransform="translate(687.1 123.75) rotate(178)" xlink:href="#Dégradé_sans_nom_40"/><linearGradient id="Dégradé_sans_nom_40-4" x1="8642.31" y1="219.04" x2="8658.76" y2="219.04" gradientTransform="matrix(1, 0.06, 0.06, -1, -7816.41, 1.05)" xlink:href="#Dégradé_sans_nom_40"/><linearGradient id="Dégradé_sans_nom_41" x1="-106.6" y1="-140.44" x2="-109.27" y2="-133.57" gradientTransform="translate(665.72 228.91) rotate(158.84)" gradientUnits="userSpaceOnUse"><stop offset="0" stop-color="#fee4bc"/><stop offset="1" stop-color="#fbdeb3"/></linearGradient><linearGradient id="Dégradé_sans_nom_42-3" x1="400.18" y1="398.81" x2="377.82" y2="400" gradientTransform="translate(1225.32 755.76) rotate(179.32)" xlink:href="#Dégradé_sans_nom_42"/><linearGradient id="Dégradé_sans_nom_58-2" x1="453.73" y1="393.31" x2="422.98" y2="491.06" xlink:href="#Dégradé_sans_nom_58"/><linearGradient id="Dégradé_sans_nom_58-3" x1="394.04" y1="342.05" x2="391.27" y2="495.76" xlink:href="#Dégradé_sans_nom_58"/><linearGradient id="Dégradé_sans_nom_58-4" x1="376.74" y1="427.42" x2="341.76" y2="355.22" xlink:href="#Dégradé_sans_nom_58"/><linearGradient id="Dégradé_sans_nom_58-5" x1="388.2" y1="451.21" x2="413.2" y2="492.11" xlink:href="#Dégradé_sans_nom_58"/><linearGradient id="Dégradé_sans_nom_58-6" x1="370.78" y1="513.05" x2="372.16" y2="420.66" gradientTransform="matrix(-1, 0.01, -0.01, -0.9, 1225.27, 789.88)" xlink:href="#Dégradé_sans_nom_58"/><linearGradient id="Dégradé_sans_nom_58-7" x1="390.32" y1="351.78" x2="360.87" y2="445.4" xlink:href="#Dégradé_sans_nom_58"/><linearGradient id="Dégradé_sans_nom_58-8" x1="491.4" y1="433.14" x2="261" y2="386.59" xlink:href="#Dégradé_sans_nom_58"/><linearGradient id="Dégradé_sans_nom_59-2" x1="390.1" y1="485.59" x2="376.82" y2="282.71" xlink:href="#Dégradé_sans_nom_59"/><linearGradient id="Dégradé_sans_nom_59-3" x1="374.11" y1="488.45" x2="360.59" y2="282.13" xlink:href="#Dégradé_sans_nom_59"/><linearGradient id="Dégradé_sans_nom_58-9" x1="359.69" y1="385.01" x2="378.28" y2="443.61" xlink:href="#Dégradé_sans_nom_58"/><linearGradient id="Dégradé_sans_nom_58-10" x1="387.87" y1="384.98" x2="386" y2="356.36" xlink:href="#Dégradé_sans_nom_58"/><linearGradient id="Dégradé_sans_nom_59-4" x1="398.7" y1="396.02" x2="312.11" y2="385.09" xlink:href="#Dégradé_sans_nom_59"/><linearGradient id="Dégradé_sans_nom_59-5" x1="376.34" y1="414.05" x2="388.79" y2="337.2" xlink:href="#Dégradé_sans_nom_59"/><linearGradient id="Dégradé_sans_nom_58-11" x1="427.87" y1="448.31" x2="421.55" y2="488.4" xlink:href="#Dégradé_sans_nom_58"/><linearGradient id="Dégradé_sans_nom_58-12" x1="419.95" y1="366.58" x2="428.04" y2="443.24" xlink:href="#Dégradé_sans_nom_58"/><linearGradient id="Dégradé_sans_nom_58-13" x1="384.55" y1="356.89" x2="382.88" y2="449.23" xlink:href="#Dégradé_sans_nom_58"/><linearGradient id="Dégradé_sans_nom_59-6" x1="381.28" y1="488.9" x2="378.22" y2="442.18" xlink:href="#Dégradé_sans_nom_59"/><linearGradient id="Dégradé_sans_nom_60" x1="402.87" y1="460.93" x2="408.23" y2="500.67" gradientTransform="translate(1225.32 755.76) rotate(179.32)" gradientUnits="userSpaceOnUse"><stop offset="0" stop-color="#703425"/><stop offset="0.37" stop-color="#753728"/><stop offset="0.78" stop-color="#823e2f"/><stop offset="1" stop-color="#8c4335"/></linearGradient></defs><circle class="cls-2" cx="75.47" cy="74.63" r="74.63"/><circle class="cls-3" cx="75.47" cy="74.63" r="69.86"/><circle class="cls-4" cx="75.97" cy="74.7" r="65.62"/><path class="cls-5" d="M725.9,320.79a29.54,29.54,0,0,0,44,27.8,2.08,2.08,0,0,1,1.64-.2l10.6,3.07a1.6,1.6,0,0,0,2-1,1.71,1.71,0,0,0,0-.95L781,338.26a1.42,1.42,0,0,1,.13-1.05,29.52,29.52,0,1,0-55.24-16.42Z" transform="translate(-724.98 -250.35)"/><path class="cls-3" d="M770.61,312.64H740.89a1,1,0,0,0-1,1h0a1,1,0,0,0,1,1h29.72a1,1,0,0,0,1-1h0A1,1,0,0,0,770.61,312.64Z" transform="translate(-724.98 -250.35)"/><path class="cls-3" d="M770.61,319.12H740.89a1,1,0,0,0-1,1h0a1,1,0,0,0,1,1h29.72a1,1,0,0,0,1-1h0A1,1,0,0,0,770.61,319.12Z" transform="translate(-724.98 -250.35)"/><path class="cls-3" d="M770.61,325.6H740.89a1,1,0,0,0-1,1h0a1,1,0,0,0,1,1h29.72a1,1,0,0,0,1-1h0A1,1,0,0,0,770.61,325.6Z" transform="translate(-724.98 -250.35)"/><path class="cls-3" d="M770.61,332.07H740.89a1,1,0,0,0-1,1h0a1,1,0,0,0,1,1h29.72a1,1,0,0,0,1-1h0A1,1,0,0,0,770.61,332.07Z" transform="translate(-724.98 -250.35)"/><g class="cls-6"><path class="cls-7" d="M799.4,270.52s-16.94,28.61-13.81,45.05c3.2,16.78-2.74,22.22,3.26,29.62,3.68,4.54,12.35,11.49,12.37,13.24s9-1.13,9.75-3.12C830.62,299.81,799.4,270.52,799.4,270.52Z" transform="translate(-724.98 -250.35)"/><path class="cls-8" d="M784,308.8S779.21,333,789.05,346s10.31,10.51,10.31,10.51l8.41-1.71A23.24,23.24,0,0,1,796,342.39a49.32,49.32,0,0,1-3.11-26.77Z" transform="translate(-724.98 -250.35)"/><path class="cls-9" d="M795.35,320.89c4.16-18.49,13.14-33.15,14.33-51.25l.86-.07c51.28-7.72,45.18,82,33.6,91.84-3,.69-24.62,12.24-31.28,13.94C820.3,349.22,789.64,346.25,795.35,320.89Z" transform="translate(-724.98 -250.35)"/><path class="cls-10" d="M835.91,350.33c.11-.55-1-3.85-2-4.13-17.75-5.32-35.2-2-37.49.11s-2.61,11.61-2.61,11.61l40.2,1Z" transform="translate(-724.98 -250.35)"/><path class="cls-11" d="M834.28,346.06s-4.7-2.61-19.23-2.75c-7.76-.07-17.22.67-19.19,3.55l1.52,3.26s-1.73-7.1,17.39-6.52c15.2.46,18.75,2.75,19,5.95Z" transform="translate(-724.98 -250.35)"/><path class="cls-12" d="M777.9,362.36c2-.09,25.78-10.17,26.48-14.34a35.57,35.57,0,0,0-.17-12.89l19.47-6.62c-.9,7.18,2.27,17.5,4.43,21.82,1.38,2.75,8.22,7,16.28,9.37-1.47,1.47-18.67,27.48-29.88,36.28C813.57,396.93,779.85,370.3,777.9,362.36Z" transform="translate(-724.98 -250.35)"/><path class="cls-13" d="M813.43,363.39c-1.21-1.34-2.69-5.47-2.69-5.47.92.47,3.16,3.13,3.78,2.84s3.39-3.8,3.29-3S814.64,364.73,813.43,363.39Z" transform="translate(-724.98 -250.35)"/><path class="cls-14" d="M813.07,397.17h3.23A43.33,43.33,0,0,0,819.83,387c1.42-6.6,18.67-29.77,16-31.29-3.36-1.91-6-3.82-6.34-4.41-2.61-5.28-2-18.84-2-18.84H827c-.72,1.28-10.59,7.93-12.57,7.93-.87,0-9.64-2.45-10-2.85.11,1.66.21,3.49.21,4.75,0,2.92-.53,5.85-1.25,6.44a42.2,42.2,0,0,1-6.51,4.43c-3.45,2,2.74,6.94,3.37,8.1C801.14,363,809.8,387.8,813.07,397.17Zm7.31-29.87c-.66,4.24-6.42,19.83-6.45,19.79-3-6.85-6.24-20.7-6.46-22.65s-1.68-5-5.05-9.67c-.24-.35,4.78-3.53,4.45-10.26L824.72,349c.56,1.33,2.1,3.81,2.83,5.48-2.55,3.52-6.61,9.11-7.17,12.82Z" transform="translate(-724.98 -250.35)"/><path class="cls-15" d="M779.88,387c-1.52-5.76-16.1-20.25-16.1-20.25a116.77,116.77,0,0,1,18.68-9.13c4.89-1.63,13.18-5,13.18-5a49.41,49.41,0,0,0,5.76,4.85c5,15.47,23.71,8.35,23.71,8.35,3.34-1.52,7.52-12,7.52-12,19.83,4.83,30.61,12.81,30.61,12.81-2.12,1.21-9.1,9.4-11.52,12.73-1.58,2.18-2.52,9.67-3.15,17.72h-67.2A78.78,78.78,0,0,0,779.88,387Z" transform="translate(-724.98 -250.35)"/><path class="cls-16" d="M786.38,396.25c-5.22-12.39-6.31-14.12-8.26-26.51l24.11-.21,23.68.43,26.53,1.74s-5.74,15.86-10.8,25.4H786.77A8.19,8.19,0,0,1,786.38,396.25Z" transform="translate(-724.98 -250.35)"/><path class="cls-17" d="M863.11,366.55S852,358.67,833.59,352C833.6,352,838.26,357.13,863.11,366.55Z" transform="translate(-724.98 -250.35)"/><path class="cls-11" d="M795.35,353.59s-20,4.54-31.57,13.12C763.78,366.71,791.37,356.06,795.35,353.59Z" transform="translate(-724.98 -250.35)"/><path class="cls-18" d="M829.83,355.78c1.29-.62,5.5-3.64,5.5-3.64l7.19,6.67L841,371,830.4,360.9s-4.59-.16-6.78,1.9C823.6,362.8,825.91,357.68,829.83,355.78Z" transform="translate(-724.98 -250.35)"/><path class="cls-19" d="M835.28,352.31l7.17,6.66-1.15,12.75-11-10.77a38.78,38.78,0,0,1,2.13-7.16A18.36,18.36,0,0,1,835.28,352.31Z" transform="translate(-724.98 -250.35)"/><path class="cls-20" d="M823.59,362.81s5-5.59,5.8-5.59,4.28,3.33,4.28,3.33a88.41,88.41,0,0,1,9.63,11s.75-13.62-.29-15.28c-5.07-8.11-8.73-10.22-8.73-10.22a13.84,13.84,0,0,1-5.46,8.43C827.32,355.59,825.86,358.15,823.59,362.81Z" transform="translate(-724.98 -250.35)"/><path class="cls-10" d="M823.87,361.24c1.63-.4-.19,4.65-.19,4.65,3.33-1.52,7.51-12,7.51-12,19.83,4.83,30.62,12.81,30.62,12.81-2.12,1.22-9.09,9.4-11.52,12.73-1.59,2.18-2.52,9.67-3.16,17.72H822.69C818.91,382.53,820.27,371.31,823.87,361.24Z" transform="translate(-724.98 -250.35)"/><path class="cls-10" d="M805.49,361.28c-1.63-.39.38,4.63.38,4.63-3.33-1.52-7.5-12-7.5-12-19.84,4.83-30.63,12.81-30.63,12.81,2.13,1.22,9.1,9.4,11.53,12.73,1.58,2.18,2.52,9.67,3.15,17.72h24.4C810.64,382.53,808,366.08,805.49,361.28Z" transform="translate(-724.98 -250.35)"/><path class="cls-11" d="M849.82,380.83c.21-4.35,12.45-17.52,13.69-13,2.22,8.06,2.73,22.55,2.91,29.31H848.47C849.06,390.56,849.7,383.21,849.82,380.83Z" transform="translate(-724.98 -250.35)"/><path class="cls-10" d="M850.25,377.89c.62-2.9,1.71,10.48,2.35,19.21h-4.2C849,389,849.71,380.41,850.25,377.89Z" transform="translate(-724.98 -250.35)"/><path class="cls-11" d="M763.78,366.7c5-.92,9.77,8,13.26,11.3s5,14.34,5,14.34,0,2,.12,4.76H760.3C759.88,372.88,763.78,366.7,763.78,366.7Z" transform="translate(-724.98 -250.35)"/><path class="cls-10" d="M780.72,383.05s1,6.56,1.41,10.75c.12,1.16.23,2.27.31,3.35h-3.55C779.06,385.83,779.58,371.88,780.72,383.05Z" transform="translate(-724.98 -250.35)"/><path class="cls-11" d="M823,364c1.62-.39,2.14,1.84,2.14,1.84,3.34-1.52,7.52-12,7.52-12,19.83,4.83,30.61,12.81,30.61,12.81-2.12,1.21-9.1,9.4-11.52,12.73-1.58,2.18-2.52,9.67-3.15,17.72H824.22C820.42,382.45,821.36,369.91,823,364Z" transform="translate(-724.98 -250.35)"/><path class="cls-11" d="M782.53,357.58c4.89-1.63,13.19-5,13.19-5,1.21,1.51,5.75,4.85,5.75,4.85a13.93,13.93,0,0,0,5.2,7.4c1.34,5.95,2.65,17.19-1.24,32.22h-24A78.68,78.68,0,0,0,780,387c-1.52-5.76-16.1-20.25-16.1-20.25C764.59,366,776,359.75,782.53,357.58Z" transform="translate(-724.98 -250.35)"/><path class="cls-10" d="M798.15,361.11c-2-1.74-5.22-4.54-6.78-5.27l6.81-4.34,7.31,9.78a23,23,0,0,1,1.18,3.6C804.33,363.35,800.87,361.24,798.15,361.11Z" transform="translate(-724.98 -250.35)"/><path class="cls-10" d="M787.37,358.26l11.43-5a10.18,10.18,0,0,0,3.07,6c-1.83-.66-9.77,9.92-11.76,8.46C788.79,366.68,787.37,358.26,787.37,358.26Z" transform="translate(-724.98 -250.35)"/><path class="cls-11" d="M805.49,361.31s-2.91-3.84-5.13-3.47-8.87,8.93-10.73,8.19c-1-.39-3.35-8.78-2.24-10.41a42.9,42.9,0,0,1,9.27-9.56,13.46,13.46,0,0,0,4.21,8.23C802.27,355.51,805.2,360,805.49,361.31Z" transform="translate(-724.98 -250.35)"/><path class="cls-21" d="M788,311.47c1.34,7.35,1.91,13,1.91,13-4.77-1.45-8.55-15.11-3.73-15.12C787,309.33,788,311.47,788,311.47Z" transform="translate(-724.98 -250.35)"/><path class="cls-22" d="M787.65,320.79a5.53,5.53,0,0,1-.7-4.32c1.25-6.47-3-7.42-2.27-2.82,0,0,.69-2,1.21-1.35.64.86-.77,1.12-.22,4.6A10.41,10.41,0,0,0,787.65,320.79Z" transform="translate(-724.98 -250.35)"/><path class="cls-21" d="M842.68,310.34c-1,7.41-1.19,13.05-1.19,13.05,4.68-1.7,7.71-15.53,2.89-15.28C843.51,308.15,842.68,310.34,842.68,310.34Z" transform="translate(-724.98 -250.35)"/><path class="cls-23" d="M842.8,319.75a5.32,5.32,0,0,0,1-4.38c-1-6.84,3.58-7.33,2.55-2.66,0,0-.65-2.2-1.23-1.53s.77,1.25,0,4.79A9.71,9.71,0,0,1,842.8,319.75Z" transform="translate(-724.98 -250.35)"/><path class="cls-24" d="M810.87,274.77c16.35-2.87,28.14,11.41,31.38,28.82,1.81,9.77,1.21,18.51-4,25.78-2.1,3-4.71,4.37-7.76,6.7-1.93,1.47-4.95,4.63-7,6.18a11.65,11.65,0,0,1-6.46,2.64c-7.71.35-12.81-5.34-15.06-7.39-7.84-7.2-15-9.84-13.63-30.09C789.46,291.47,800.13,275.21,810.87,274.77Z" transform="translate(-724.98 -250.35)"/><path class="cls-25" d="M811.64,315.83c-.75-8-.45-14.88-9.6-16.46-8.53-1.45-10.9,2.44-11.7,3.63-2,3.07-2,12-2,12S796.91,322,811.64,315.83Z" transform="translate(-724.98 -250.35)"/><path class="cls-26" d="M818.72,316.55c1-6.38-.86-16.1,11.2-17.05a13.05,13.05,0,0,1,8.77,2.15c4.56,3.35,2,12.3,2,12.3S833.71,322.27,818.72,316.55Z" transform="translate(-724.98 -250.35)"/><path class="cls-27" d="M788.27,315a52.8,52.8,0,0,1,2.41-19.22c3.09-9.14,9.11-18.84,17.63-20.59,0,0,17.3-4.83,28.67,13,5.82,9.13,8,24.9,5,33.86a89,89,0,0,0-3-12.16s-7.39-10.54-12.37-15.27c-16.61-15.79-22-16.86-26.67-10.53C794,292.18,791.85,302.85,788.27,315Z" transform="translate(-724.98 -250.35)"/><path class="cls-28" d="M815.51,337.64c2-.12,3.76.35,3.85,1.06s-1.49,1.39-3.52,1.51-3.75-.34-3.84-1.06S813.49,337.77,815.51,337.64Z" transform="translate(-724.98 -250.35)"/><path class="cls-29" d="M788.1,315.26s1.1-3.65,3.65-4.84c-5.82,8.46.41,17.67,5.21,21.91,5.29,4.67,7.48,7.34,8.33,8.12-.77-.65-7.82-6.69-9.83-8.09S786.4,324.11,788.1,315.26Z" transform="translate(-724.98 -250.35)"/><path class="cls-21" d="M840.82,312s3.23,13.38-7.1,21c-5.69,4.18-7.37,6.75-8.81,8.08,0,0,6.43-5.39,10.3-8C837.09,331.78,846.37,325.54,840.82,312Z" transform="translate(-724.98 -250.35)"/><path class="cls-30" d="M823.87,341.94s-6.3,8.46-16.91-.23C807,341.71,815.48,348.23,823.87,341.94Z" transform="translate(-724.98 -250.35)"/><path class="cls-24" d="M800.77,298.91s-3.9-1.06-8.75,2c-2.83,1.81-.22,9.5-.22,9.5S789.52,299.87,800.77,298.91Z" transform="translate(-724.98 -250.35)"/><path class="cls-21" d="M821.4,333.18s-5.45,7.23-11.6.15C809.8,333.33,816.59,336.44,821.4,333.18Z" transform="translate(-724.98 -250.35)"/><path class="cls-31" d="M816.18,328.62a52.94,52.94,0,0,0,11.9-1.46h0a1.63,1.63,0,0,0-.11.17,12.09,12.09,0,0,0-3.1,1.31c-.83.6-5,4.76-9.61,4.79-3,0-6.87-2.74-9.38-4.76a14.35,14.35,0,0,0-2.64-1.44c0-.07-.06-.11-.08-.18A39.67,39.67,0,0,0,816.18,328.62Z" transform="translate(-724.98 -250.35)"/><path class="cls-32" d="M809.71,329.86a29.88,29.88,0,0,0,11.31.05c1.36-.59,1.36.86,1.36.86-3,3-4.55,2.53-6.94,2.59a10.32,10.32,0,0,1-7-2.5C808.21,330.33,809.05,329.72,809.71,329.86Z" transform="translate(-724.98 -250.35)"/><path class="cls-33" d="M803.52,327.15c-.42-.25-.85-.51-1,.11s2,.38,4.27,2.66A10.43,10.43,0,0,0,803.52,327.15Z" transform="translate(-724.98 -250.35)"/><path class="cls-34" d="M827.81,328s.84-.23.56-.75-2.83,1-4,2.11A12.87,12.87,0,0,1,827.81,328Z" transform="translate(-724.98 -250.35)"/><path class="cls-35" d="M806.64,327.83a16.52,16.52,0,0,0,5,1,43.73,43.73,0,0,0,8.25-.09,20.68,20.68,0,0,0,4.21-.77s-.22.27-.53.72c-.79,1.11-2.5,2.87-8.51,2.65-5.25-.2-7.19-1.26-7.73-2.4C807,328.36,806.68,328,806.64,327.83Z" transform="translate(-724.98 -250.35)"/><path class="cls-36" d="M810.33,327.57c2-.17,2.5.28,5.08.4,3.11-.17,3.56-.48,5.32-.34a23.18,23.18,0,0,0,7.38-.53h0a.67.67,0,0,1-.09.14,42.91,42.91,0,0,1-7.31,1.73,23.2,23.2,0,0,1-11.11,0,29.25,29.25,0,0,1-6.41-1.74.54.54,0,0,0,0-.18A27.18,27.18,0,0,0,810.33,327.57Z" transform="translate(-724.98 -250.35)"/><path class="cls-36" d="M814.66,333c7.93.26,7.66-4.39,13.3-5.62a8.52,8.52,0,0,0-4,2.64c-1.92,2.25-3,5.63-8.57,5.61-5.06,0-7-3.67-8.67-5.69a6.88,6.88,0,0,0-3.5-2.66C808.19,328.76,807.92,332.75,814.66,333Z" transform="translate(-724.98 -250.35)"/><path class="cls-37" d="M820.49,331.8a24.82,24.82,0,0,0,3.19-2.3c-1.2,1.51-2.17,5.49-7.53,5.73-6.51.32-7.08-3.88-9.23-5.82a11.2,11.2,0,0,0,3.91,2.49,12.87,12.87,0,0,0,5,1.09A11.5,11.5,0,0,0,820.49,331.8Z" transform="translate(-724.98 -250.35)"/><path class="cls-38" d="M810.79,332.79c-.09.23.55,1,1.86,1.36a3.79,3.79,0,0,0,3.16-.22c.09-.23-2.18-.39-2.84-.61S810.79,332.57,810.79,332.79Z" transform="translate(-724.98 -250.35)"/><path class="cls-31" d="M805.44,328.09a15,15,0,0,0-2.58-1.25C802.66,326.93,802.11,327.15,805.44,328.09Z" transform="translate(-724.98 -250.35)"/><path class="cls-31" d="M825.57,328.08a15.54,15.54,0,0,1,2.67-1C828.43,327.16,829,327.44,825.57,328.08Z" transform="translate(-724.98 -250.35)"/><path class="cls-39" d="M812.77,327.82a13.25,13.25,0,0,0,2.81.34c.63,0,2.44-.2,3.61-.34a5.41,5.41,0,0,1,2.84.35c1,.53-5.1,1.22-6.58,1.23s-7-.57-5.76-1.17A4.63,4.63,0,0,1,812.77,327.82Z" transform="translate(-724.98 -250.35)"/><path class="cls-40" d="M799.11,303.88c9-.11,10.12,4.74,10.3,8.35-.83.17-1.66.38-2.48.63a18.26,18.26,0,0,1-6.32,1.32c-2.19,0-7.08-1.11-7.16-5.8C793.38,304.71,797.14,304.05,799.11,303.88Z" transform="translate(-724.98 -250.35)"/><path class="cls-41" d="M798.09,310.44a4.56,4.56,0,0,1,3-4.59c-2,.19-4.45,1.23-7.39,3.69a8.4,8.4,0,0,0,6.47,4.12A4,4,0,0,1,798.09,310.44Z" transform="translate(-724.98 -250.35)"/><path class="cls-42" d="M804.4,306.59a5.75,5.75,0,0,1,1.87,3.41,3.61,3.61,0,0,1-1.44,3.16,29.12,29.12,0,0,1,4.22-1.22A14.05,14.05,0,0,0,804.4,306.59Z" transform="translate(-724.98 -250.35)"/><path class="cls-43" d="M806.2,309.49a3,3,0,0,1,.07.51,3.42,3.42,0,0,1-1.44,3.16,14.25,14.25,0,0,1-5.16.49,3.81,3.81,0,0,1-2.11-3.11,4.25,4.25,0,0,1,.42-2.16A9.2,9.2,0,0,1,806.2,309.49Z" transform="translate(-724.98 -250.35)"/><path class="cls-44" d="M799.65,306.76a8.81,8.81,0,0,0-5.25,2.89l.57,1a12,12,0,0,1,2.77-1.61A4.08,4.08,0,0,1,799.65,306.76Z" transform="translate(-724.98 -250.35)"/><path class="cls-44" d="M806.2,309.59a14.62,14.62,0,0,1,2.85,2.35s-1.76-3.55-4.41-4.83A4.12,4.12,0,0,1,806.2,309.59Z" transform="translate(-724.98 -250.35)"/><path class="cls-45" d="M802.16,308.3a9.6,9.6,0,0,1,4,1.29,4.12,4.12,0,0,0-1.56-2.48,4.93,4.93,0,0,0-1.14-.38,10.38,10.38,0,0,0-3.85,0,4.07,4.07,0,0,0-1.91,2.32A9.32,9.32,0,0,1,802.16,308.3Z" transform="translate(-724.98 -250.35)"/><path class="cls-46" d="M805,309.67a3,3,0,1,1-3.36-2.69h.11a3,3,0,0,1,3.25,2.67Z" transform="translate(-724.98 -250.35)"/><path class="cls-3" d="M801.16,309.67a.75.75,0,0,0,1,.36.78.78,0,0,0,.33-1,.75.75,0,0,0-1-.36A.78.78,0,0,0,801.16,309.67Z" transform="translate(-724.98 -250.35)"/><path class="cls-3" d="M798.52,311.06a1,1,0,0,0,1.39.45,1,1,0,0,0,.48-1.31.08.08,0,0,0,0-.05,1,1,0,0,0-1.32-.49l-.06,0a1,1,0,0,0-.49,1.31A.14.14,0,0,0,798.52,311.06Z" transform="translate(-724.98 -250.35)"/><path class="cls-47" d="M793.63,310.21a.94.94,0,0,0-.07-.31c-2.11-.73-1.76-3.6-1.78-3.71a5.66,5.66,0,0,0,4.84-.16c7.26-3,11.16,1,12.43,6,0,0-3-4.49-6.81-4.69a10.65,10.65,0,0,0-7.6,2.53c1.45,2.23,2.8,2.87,5.57,4a10.12,10.12,0,0,1-5.23-1.93c-1.88-1.36-2.73-.88-2.74-.9A1.44,1.44,0,0,1,793.63,310.21Z" transform="translate(-724.98 -250.35)"/><path class="cls-48" d="M832,303.81c-8.78-.26-10,3.77-10.18,8.47.55.13,1.28.25,2.49.61a18.57,18.57,0,0,0,6.34,1.24c2.19,0,7.14-1.31,6.85-4.87C837.23,305.2,834.46,303.81,832,303.81Z" transform="translate(-724.98 -250.35)"/><path class="cls-49" d="M833.16,310.36a4.55,4.55,0,0,0-3-4.56c2,.17,4.47,1.17,7.44,3.6a8.36,8.36,0,0,1-6.42,4.2A3.91,3.91,0,0,0,833.16,310.36Z" transform="translate(-724.98 -250.35)"/><path class="cls-50" d="M826.81,306.58A5.72,5.72,0,0,0,825,310a3.62,3.62,0,0,0,1.48,3.15,28.2,28.2,0,0,0-4.23-1.17A14,14,0,0,1,826.81,306.58Z" transform="translate(-724.98 -250.35)"/><path class="cls-51" d="M825,309.5a4.43,4.43,0,0,0-.06.51,3.45,3.45,0,0,0,1.48,3.15,14.43,14.43,0,0,0,5.15.43,3.84,3.84,0,0,0,2.09-3.14,4.34,4.34,0,0,0-.45-2.15A9.2,9.2,0,0,0,825,309.5Z" transform="translate(-724.98 -250.35)"/><path class="cls-44" d="M831.55,306.69a8.86,8.86,0,0,1,5.29,2.83l-.55,1a12.57,12.57,0,0,0-2.79-1.57A4.15,4.15,0,0,0,831.55,306.69Z" transform="translate(-724.98 -250.35)"/><path class="cls-44" d="M825.05,309.61a14.59,14.59,0,0,0-2.82,2.38s1.7-3.57,4.34-4.88A4.09,4.09,0,0,0,825.05,309.61Z" transform="translate(-724.98 -250.35)"/><path class="cls-52" d="M829.07,308.26a9.41,9.41,0,0,0-4,1.35,4.09,4.09,0,0,1,1.52-2.5,5,5,0,0,1,1.14-.4,10.77,10.77,0,0,1,3.84,0,4.19,4.19,0,0,1,2,2.3A9.5,9.5,0,0,0,829.07,308.26Z" transform="translate(-724.98 -250.35)"/><path class="cls-53" d="M826.26,309.67a3,3,0,1,0,3.33-2.73h-.1a3,3,0,0,0-3.23,2.7Z" transform="translate(-724.98 -250.35)"/><path class="cls-3" d="M828.46,309.67a.73.73,0,0,0,1,.35h0a.77.77,0,0,0,.32-1,.73.73,0,0,0-1-.36h0A.79.79,0,0,0,828.46,309.67Z" transform="translate(-724.98 -250.35)"/><path class="cls-3" d="M825.82,311a1,1,0,0,0,1.39.46,1,1,0,0,0,.46-1.38,1,1,0,0,0-1.32-.49l-.07,0a1,1,0,0,0-.48,1.32S825.81,311,825.82,311Z" transform="translate(-724.98 -250.35)"/><path class="cls-54" d="M837.62,310.07a.94.94,0,0,1,.07-.31c2.1-.74,1.72-3.62,1.74-3.73a5.75,5.75,0,0,1-4.88-.1c-7.29-2.86-11.12,1.15-12.32,6.06,0,0,2.86-4.52,6.72-4.78a10.77,10.77,0,0,1,7.62,2.46c-1.41,2.25-2.75,2.91-5.51,4a10.18,10.18,0,0,0,5.2-2c1.87-1.38,2.72-.92,2.73-.93A1.41,1.41,0,0,0,837.62,310.07Z" transform="translate(-724.98 -250.35)"/><path class="cls-55" d="M805.56,299.5c2,.91,3.45,3.51,1.72,3s-8.1-2.9-9.48-2.91a15.28,15.28,0,0,0-6.17,1.65s3.83-3,6.2-3.28S804.5,299,805.56,299.5Z" transform="translate(-724.98 -250.35)"/><path class="cls-56" d="M825.19,299.31c-2,.85-3.19,3.23-1.46,2.73s8.18-2.64,9.56-2.69a14.72,14.72,0,0,1,6.12,1.88s-3.74-3.18-6.1-3.51S826.27,298.85,825.19,299.31Z" transform="translate(-724.98 -250.35)"/><path class="cls-57" d="M815.5,319.11c2.53,0,3.25.68,3.07,1.36-.43,1.64-1.5,2-3.09,2s-3-.35-3.24-2.11C812.16,319.8,813,319.06,815.5,319.11Z" transform="translate(-724.98 -250.35)"/><path class="cls-23" d="M813.83,323.55s-2.66-2-3.16-1.44C809.18,323.66,813.83,323.55,813.83,323.55Z" transform="translate(-724.98 -250.35)"/><path class="cls-23" d="M817,323.55s2.78-1.74,3.34-1.29C821.87,323.55,817,323.55,817,323.55Z" transform="translate(-724.98 -250.35)"/><path class="cls-21" d="M820.32,323.06s.27-.69-.79-.61c-.77.06-1.36,1.69-4.09,1.64-2.9-.06-3.32-1.52-4.06-1.55a.53.53,0,0,0-.61.43.54.54,0,0,0,0,.18s-1.39-.71-.87-1.35c.94-1.16,1.25,1.22,5.59,1.11,4.72-.11,5.24-2.42,5.89-1C821.65,322.56,821.14,322.75,820.32,323.06Z" transform="translate(-724.98 -250.35)"/><path class="cls-58" d="M824.32,361.07s13.32-2,16.24-1.83S828.77,364.78,824.32,361.07Z" transform="translate(-724.98 -250.35)"/><path class="cls-59" d="M802.61,279.92l-4.85-8.19s-10.51-3.81-15.8,16.21c-3.91,15.07-3.5,32.08,2.11,46.61C784.07,334.55,776.17,289.62,802.61,279.92Z" transform="translate(-724.98 -250.35)"/><path class="cls-60" d="M802.61,279.92l-5.43-8.19s6-9.92,23.79-8.43c11.36,1,33.19,10.91,36.37,32.58,2.3,15.74,1.47,17,1.06,30.83A162.58,162.58,0,0,1,850,301.78c-2.77-12.06-16.6-20.1-23.05-24S807.26,271.55,802.61,279.92Z" transform="translate(-724.98 -250.35)"/><path class="cls-61" d="M857.4,336.67s8.19,10.53,2,20c-4.18,6.42,10,12.82,10.52,4.19,0,0,2.45,4.77.3,8.44-5.32,9.05-17.85,6.85-21.14-.71s1.76-21.94-2-25.27Z" transform="translate(-724.98 -250.35)"/><path class="cls-62" d="M802.61,279.92s1.78-6.07,6.23-6.08c17.94,0,30.27,32.78,30.27,32.78s-18.48-28.12-29-28.57C803.94,277.8,802.61,279.92,802.61,279.92Z" transform="translate(-724.98 -250.35)"/><path class="cls-63" d="M856.84,328.29s7.26,5.16,5.89,12.41-12.62,7.56-9.13,14.34,5.95,10.2,5.95,19.13c-.06,14.61-31.19,19.83-19.19,10.45,5.65-4.42-2.08-24.61-4.55-27.57S858.51,344.45,856.84,328.29Z" transform="translate(-724.98 -250.35)"/><path class="cls-64" d="M854.5,315.35C858,320,867,331.89,866.09,341.54c-1.29,13.23-16.14,12-19.23,20.75-3.17,8.92,12,9.14,12,9.14S841.6,383.72,833.25,367c-5-9.87-3.18-18.36,5-25s12.52-11.45,12.49-13.33S851,310.66,854.5,315.35Z" transform="translate(-724.98 -250.35)"/><path class="cls-65" d="M855.41,330.41s11,10.41-.74,18.58c-14.79,10.29-15.5,16.67-7.26,24.08,0,0-7.68-4.64-9.24-10-1.62-5.6,7.83-13,10.66-16.62a13.42,13.42,0,0,0,2-12.77Z" transform="translate(-724.98 -250.35)"/><path class="cls-66" d="M802.61,279.92s2.39-15.09,21.45-6.16c7,3.29,23,19.65,27.46,26.12s16.2,24.56,2.17,36.06c-13.05,10.72-22.54,15.38-15.13,26S849.27,377.55,849,384c-.21,5.44-10.22,16.86-23.15,6.32,0,0,8.62,3.24,11.7-2.39,1.71-3.11-.24-7.49-4.2-10.63-15-11.9-14.17-25.7-3.63-35.57,9.11-8.54,17.37-9.43,13.11-25-2-7.16-5.29-12.89-11.21-24.06C824.3,278.93,811.39,267.94,802.61,279.92Z" transform="translate(-724.98 -250.35)"/><path class="cls-67" d="M830.13,278.41s29,21.82,34.21,39.35c3.24,10.83-3.31,14.28-9.28,17.17,0,0,10.36-8.37,4.21-19.74S830.13,278.41,830.13,278.41Z" transform="translate(-724.98 -250.35)"/><path class="cls-68" d="M827.58,284.34S846,305.88,848.93,309.5s13,22.53-10.5,29.55c0,0,13.54-10.71,8.74-22.46C843.86,308.47,827.58,284.34,827.58,284.34Z" transform="translate(-724.98 -250.35)"/><path class="cls-69" d="M830.53,374.89s10.47,9.09,6,13.48-10.63,2-10.63,2,3.71,2.77,9.92,1.75c3.06-.49,8.29-3.18,5.32-8.48S830.53,374.89,830.53,374.89Z" transform="translate(-724.98 -250.35)"/><path class="cls-70" d="M848.81,339.86S821.1,355.6,834.38,364.4c28.14,18.66,12.44,27.76,6.09,29.93,0,0,13-1.44,15.09-9.79,1.45-5.88-3.84-10.84-12.89-18.73C830.29,355.08,844.78,343.46,848.81,339.86Z" transform="translate(-724.98 -250.35)"/><path class="cls-71" d="M846,342.33s-14.63,8.42-13.57,15.72c1.17,8.06,12,13.88,18.9,7.09,0,0-9.92,2-12.09-5.29C838,355.66,837.18,351.41,846,342.33Z" transform="translate(-724.98 -250.35)"/><path class="cls-72" d="M802.61,279.92a4.71,4.71,0,0,0-5.22,1c-2.2,2.37-12.19,18.4-9.21,30.17A65.09,65.09,0,0,1,795,289.36C798.15,283.31,799.71,281.1,802.61,279.92Z" transform="translate(-724.98 -250.35)"/><path class="cls-73" d="M802.61,279.92s-10.47-7.75-16.71,12.66c-4.66,15.24-17.59,35.63,4,51.22,0,0-7.06-7.23-7.48-17.34-.46-11,3.29-16.07,8.52-32.63C795.08,280.79,802.61,279.92,802.61,279.92Z" transform="translate(-724.98 -250.35)"/><path class="cls-74" d="M840.6,310.27s6.42,14.88-2,22.73c-11,10.31-12.07,11.95-13.78,15.2,0,0,9.49-8.68,11.51-10s9.92-6.16,12.37-11.39C850.38,323.31,846.8,317.79,840.6,310.27Z" transform="translate(-724.98 -250.35)"/><path class="cls-75" d="M822.62,271.47A42.65,42.65,0,0,1,856,297.77S841.17,278,822.62,271.47Z" transform="translate(-724.98 -250.35)"/><path class="cls-76" d="M850.73,280.2s-8.38-12.48-23.3-16.37c-12.14-3.18-23.43-1.19-29.34,6.37a13,13,0,0,0-7.94,2.83c-3.84,3-8.92,10.6-10,24.65,0,0,6.33-24,18.15-24.52,0,0,8.8-9.11,25.7-6.11C836.39,269.25,850.73,280.2,850.73,280.2Z" transform="translate(-724.98 -250.35)"/><path class="cls-3" d="M795.29,376.92a1,1,0,0,1,1,1,.25.25,0,0,1,0,.08,1.45,1.45,0,0,1-1.43,1.33c-.69,0-.83-.38-.78-1S794.51,376.92,795.29,376.92Zm-2.88-1.46c-.06.07,0,.1.12.12.4.06.54.1.51.36l-.27,3.05c0,.39.17.4.47.51a5.14,5.14,0,0,0,1.41.17c1.56,0,2.78-.78,2.87-1.8.06-.75-.53-1.43-1.61-1.43a2.55,2.55,0,0,0-1.75.63h0l.14-1.59c0-.13,0-.2-.22-.2h-1.42c-.06,0-.1,0-.13.05Z" transform="translate(-724.98 -250.35)"/><path class="cls-3" d="M790.38,376.45c-1.41,0-2.5.7-2.58,1.66-.06.72.65,1.53,2.08,1.53s2.51-.78,2.59-1.65S791.77,376.45,790.38,376.45Zm-.42,2.87a1,1,0,0,1-.93-1.06s0-.08,0-.12a1.34,1.34,0,0,1,1.27-1.32,1,1,0,0,1,1,1,1.49,1.49,0,0,1,0,.21A1.37,1.37,0,0,1,790,379.32Z" transform="translate(-724.98 -250.35)"/><path class="cls-3" d="M799.12,377.75a1.1,1.1,0,0,1,1.11-1c.39,0,.89.18.85.73,0,.18-.14.28-.37.28Zm2.65.33a.28.28,0,0,0,.23-.24c.08-.84-.72-1.4-1.73-1.4-1.33,0-2.36.61-2.45,1.65-.08.84.7,1.55,2.29,1.55a2.58,2.58,0,0,0,1.56-.56c.19-.19.11-.29,0-.24a2.67,2.67,0,0,1-1.41.39c-.91,0-1.23-.55-1.18-1.15Z" transform="translate(-724.98 -250.35)"/><path class="cls-3" d="M787.41,379.66c.16,0,.22-.06.23-.16V379c0-.22-.14-.47-.26-.27a1.23,1.23,0,0,1-1.21.58h0c-.51,0-.67-.13-.62-.68l.28-3.18c0-.1-.06-.16-.22-.16h-1.42c-.05,0-.11,0-.14.05l-.09.12c-.06.08,0,.1.11.12.41.06.54.11.52.37l-.3,3.51c0,.13,0,.21.22.21h2.9" transform="translate(-724.98 -250.35)"/></g></svg>